<svg width="82" height="82" viewBox="0 0 82 82" fill="none" xmlns="http://www.w3.org/2000/svg">
<rect width="82" height="82" fill="#EB0029"/>
<path d="M23.1136 35V17.5455H33.5795V19.4205H25.2273V25.3182H32.7955V27.1932H25.2273V35H23.1136ZM28.5 64H23.1136V46.5455H28.7386C30.4318 46.5455 31.8807 46.8949 33.0852 47.5938C34.2898 48.2869 35.2131 49.2841 35.8551 50.5852C36.4972 51.8807 36.8182 53.4318 36.8182 55.2386C36.8182 57.0568 36.4943 58.6222 35.8466 59.9347C35.1989 61.2415 34.2557 62.2472 33.017 62.9517C31.7784 63.6506 30.2727 64 28.5 64ZM25.2273 62.125H28.3636C29.8068 62.125 31.0028 61.8466 31.9517 61.2898C32.9006 60.733 33.608 59.9403 34.0739 58.9119C34.5398 57.8835 34.7727 56.6591 34.7727 55.2386C34.7727 53.8295 34.5426 52.6165 34.0824 51.5994C33.6222 50.5767 32.9347 49.7926 32.0199 49.2472C31.1051 48.696 29.9659 48.4205 28.6023 48.4205H25.2273V62.125Z" fill="white"/>
<path d="M58.8409 26.2727C58.8409 28.1136 58.5085 29.7045 57.8438 31.0455C57.179 32.3864 56.267 33.4205 55.108 34.1477C53.9489 34.875 52.625 35.2386 51.1364 35.2386C49.6477 35.2386 48.3239 34.875 47.1648 34.1477C46.0057 33.4205 45.0938 32.3864 44.429 31.0455C43.7642 29.7045 43.4318 28.1136 43.4318 26.2727C43.4318 24.4318 43.7642 22.8409 44.429 21.5C45.0938 20.1591 46.0057 19.125 47.1648 18.3977C48.3239 17.6705 49.6477 17.3068 51.1364 17.3068C52.625 17.3068 53.9489 17.6705 55.108 18.3977C56.267 19.125 57.179 20.1591 57.8438 21.5C58.5085 22.8409 58.8409 24.4318 58.8409 26.2727ZM56.7955 26.2727C56.7955 24.7614 56.5426 23.4858 56.0369 22.446C55.5369 21.4062 54.858 20.6193 54 20.0852C53.1477 19.5511 52.1932 19.2841 51.1364 19.2841C50.0795 19.2841 49.1222 19.5511 48.2642 20.0852C47.4119 20.6193 46.733 21.4062 46.2273 22.446C45.7273 23.4858 45.4773 24.7614 45.4773 26.2727C45.4773 27.7841 45.7273 29.0597 46.2273 30.0994C46.733 31.1392 47.4119 31.9261 48.2642 32.4602C49.1222 32.9943 50.0795 33.2614 51.1364 33.2614C52.1932 33.2614 53.1477 32.9943 54 32.4602C54.858 31.9261 55.5369 31.1392 56.0369 30.0994C56.5426 29.0597 56.7955 27.7841 56.7955 26.2727ZM58.8409 55.2727C58.8409 57.1136 58.5085 58.7045 57.8438 60.0455C57.179 61.3864 56.267 62.4205 55.108 63.1477C53.9489 63.875 52.625 64.2386 51.1364 64.2386C49.6477 64.2386 48.3239 63.875 47.1648 63.1477C46.0057 62.4205 45.0938 61.3864 44.429 60.0455C43.7642 58.7045 43.4318 57.1136 43.4318 55.2727C43.4318 53.4318 43.7642 51.8409 44.429 50.5C45.0938 49.1591 46.0057 48.125 47.1648 47.3977C48.3239 46.6705 49.6477 46.3068 51.1364 46.3068C52.625 46.3068 53.9489 46.6705 55.108 47.3977C56.267 48.125 57.179 49.1591 57.8438 50.5C58.5085 51.8409 58.8409 53.4318 58.8409 55.2727ZM56.7955 55.2727C56.7955 53.7614 56.5426 52.4858 56.0369 51.446C55.5369 50.4062 54.858 49.6193 54 49.0852C53.1477 48.5511 52.1932 48.2841 51.1364 48.2841C50.0795 48.2841 49.1222 48.5511 48.2642 49.0852C47.4119 49.6193 46.733 50.4062 46.2273 51.446C45.7273 52.4858 45.4773 53.7614 45.4773 55.2727C45.4773 56.7841 45.7273 58.0597 46.2273 59.0994C46.733 60.1392 47.4119 60.9261 48.2642 61.4602C49.1222 61.9943 50.0795 62.2614 51.1364 62.2614C52.1932 62.2614 53.1477 61.9943 54 61.4602C54.858 60.9261 55.5369 60.1392 56.0369 59.0994C56.5426 58.0597 56.7955 56.7841 56.7955 55.2727Z" fill="white"/>
</svg>
