<svg width="63" height="70" viewBox="0 0 63 70" fill="none" xmlns="http://www.w3.org/2000/svg">
<path fill-rule="evenodd" clip-rule="evenodd" d="M61 31.5C61 47.7924 47.7924 61 31.5 61C15.2076 61 2 47.7924 2 31.5C2 15.2076 15.2076 2 31.5 2C47.7924 2 61 15.2076 61 31.5ZM48.5664 57.9807C43.6487 61.1566 37.7896 63 31.5 63C14.103 63 0 48.897 0 31.5C0 14.103 14.103 0 31.5 0C48.897 0 63 14.103 63 31.5C63 41.8784 57.9809 51.0845 50.2377 56.8234L61.2071 67.7929L59.7929 69.2071L48.5664 57.9807Z" fill="#323232"/>
</svg>
