<svg width="76" height="96" viewBox="0 0 76 96" fill="none" xmlns="http://www.w3.org/2000/svg">
<path fill-rule="evenodd" clip-rule="evenodd" d="M45.8957 25.7023C46.6906 21.777 46.9248 15.9941 45.1918 11.3261C44.335 9.01804 43.0215 7.04474 41.117 5.66446C39.3896 4.41249 37.0759 3.57549 33.9573 3.50484L33.9572 3.50744C33.797 3.50287 33.6387 3.50041 33.4821 3.50004C33.3353 3.50036 33.1868 3.50234 33.0365 3.50599L33.0365 3.50465C29.7174 3.58212 27.243 4.61822 25.374 6.20567C23.3072 7.96097 21.8658 10.4897 20.9254 13.4581C19.6773 17.3977 19.3671 21.9392 19.5471 26H47.3659L45.8957 25.7023ZM48.8947 26H63C66.866 26 70 29.134 70 33V89C70 92.866 66.866 96 63 96H7C3.13401 96 0 92.866 0 89V33C0 29.134 3.13401 26 7 26H16.5444C16.3647 21.6991 16.703 16.8527 18.0655 12.5521C19.1154 9.2379 20.8047 6.15046 23.4319 3.91908C25.9752 1.75902 29.292 0.492037 33.4809 0.500052C37.3752 0.492643 40.4756 1.49458 42.8775 3.23534C45.3736 5.0444 46.9952 7.56402 48.0043 10.282C49.9568 15.5414 49.7056 21.7719 48.8947 26ZM17.1983 32.2554C16.9773 30.9766 16.7913 29.5389 16.667 28H7C4.23858 28 2 30.2386 2 33V89C2 91.7614 4.23858 94 7 94H63C65.7614 94 68 91.7614 68 89V33C68 30.2386 65.7614 28 63 28H19.6772C19.7925 29.3432 19.9578 30.6065 20.1545 31.7446L17.1983 32.2554Z" fill="#323232"/>
<circle cx="58.5" cy="25.5" r="17.5" fill="#E73050"/>
<path d="M52.3977 30.4205V28.6818L60.0682 16.5455H61.3295V19.2386H60.4773L54.6818 28.4091V28.5455H65.0114V30.4205H52.3977ZM60.6136 34V29.892V29.0824V16.5455H62.625V34H60.6136Z" fill="white"/>
</svg>
