<svg width="84" height="80" viewBox="0 0 84 80" fill="none" xmlns="http://www.w3.org/2000/svg">
<path d="M38.1958 3.70821C39.3932 0.0229692 44.6068 0.0229596 45.8042 3.7082L52.7767 25.1672C53.3122 26.8153 54.848 27.9311 56.5809 27.9311H79.1442C83.0191 27.9311 84.6302 32.8896 81.4953 35.1672L63.2412 48.4296C61.8393 49.4481 61.2527 51.2536 61.7882 52.9017L68.7606 74.3607C69.958 78.0459 65.7401 81.1104 62.6052 78.8328L44.3511 65.5704C42.9492 64.5519 41.0508 64.5519 39.6489 65.5704L21.3948 78.8328C18.2599 81.1104 14.042 78.0459 15.2394 74.3607L22.2118 52.9017C22.7473 51.2536 22.1607 49.4481 20.7588 48.4296L2.50466 35.1672C-0.630195 32.8896 0.980902 27.9311 4.8558 27.9311H27.4191C29.152 27.9311 30.6878 26.8153 31.2233 25.1672L38.1958 3.70821Z" fill="#F2C94C"/>
</svg>
